<svg
	width="800px"
	height="800px"
	viewBox="0 0 24 24"
	xmlns:rdf="http://www.w3.org/1999/02/22-rdf-syntax-ns#"
	xmlns="http://www.w3.org/2000/svg"
	version="1.1"
	xmlns:cc="http://creativecommons.org/ns#"
	xmlns:dc="http://purl.org/dc/elements/1.1/"
>
	<g transform="translate(0 -1028.4)">
		<path d="M3 1036.4v13a2 2 0 0 0 2 2h14a2 2 0 0 0 2 -2v-13z" fill="#FF4500" />
		<path
			d="M3 1035.4v13c0 1.1 0.895 2 2 2h14c1.105 0 2 -0.9 2 -2v-13z"
			fill="#FFF0EA"
		/>
		<path
			d="M3 1034.4v13c0 1.1 0.895 2 2 2h14c1.105 0 2 -0.9 2 -2v-13z"
			fill="#FFCBB8"
		/>
		<path
			d="M3 1033.4v13c0 1.1 0.895 2 2 2h14c1.105 0 2 -0.9 2 -2v-13z"
			fill="#FFF0EA"
		/>
		<path
			d="M5 1029.4a2 2 0 0 0 -2 2v18a2 2 0 0 0 2 2h2v-1H5.5a1.5 1.5 0 0 1 0 -3H19a2 2 0 0 0 2 -2v-14a2 2 0 0 0 -2 -2H5"
			fill="#CC3A00"
		/>
		<path
			d="M8 1029.4v18h11a2 2 0 0 0 2 -2v-14a2 2 0 0 0 -2 -2H8"
			fill="#FF713D"
		/>
	</g>
</svg>
